<svg width="16" height="16" viewBox="0 0 16 16" fill="none" xmlns="http://www.w3.org/2000/svg">
<path d="M2.17537 14.7309C2.17537 14.7309 2.16116 15.0885 2.51053 15.0885C2.94517 15.0885 6.54369 15.0838 6.54369 15.0838L6.54961 11.779C6.54961 11.779 6.49277 11.2342 7.02156 11.2342H8.69499C9.3203 11.2342 9.28181 11.779 9.28181 11.779L9.27471 15.0731C9.27471 15.0731 12.6867 15.0731 13.2226 15.0731C13.6661 15.0731 13.646 14.6278 13.646 14.6278V8.53516L8.08211 3.58594L2.17537 8.53516V14.7309Z" fill="#201135"/>
<path d="M0 8.07421C0 8.07421 0.501554 8.99856 1.59526 8.07421L8.13146 2.54468L14.2597 8.03987C15.5257 8.95297 16 8.03987 16 8.03987L8.13146 0.912109L0 8.07421Z" fill="#201135"/>
<path d="M14.111 2.53125H12.5347L12.5412 4.44272L14.111 5.77448V2.53125Z" fill="#201135"/>
</svg>
