<svg width="14" height="14" viewBox="0 0 14 14" fill="none" xmlns="http://www.w3.org/2000/svg">
<path d="M13.4544 1.20846L7.95437 13.2085C7.90835 13.309 7.83031 13.3914 7.73246 13.4429C7.63461 13.4943 7.52246 13.5119 7.41357 13.4928C7.30467 13.4738 7.20515 13.4192 7.13059 13.3375C7.05603 13.2559 7.01062 13.1519 7.00147 13.0417L6.53647 7.46336L0.958118 6.99836C0.847945 6.98921 0.743911 6.9438 0.662287 6.86924C0.580663 6.79467 0.526053 6.69516 0.506996 6.58626C0.48794 6.47736 0.505512 6.36522 0.556965 6.26737C0.608418 6.16952 0.69085 6.09148 0.791368 6.04546L12.7914 0.54546C12.8841 0.502945 12.9877 0.489834 13.0881 0.507886C13.1886 0.525938 13.2811 0.574289 13.3532 0.646447C13.4254 0.718604 13.4737 0.811113 13.4918 0.911549C13.5098 1.01199 13.4969 1.11569 13.4544 1.20846Z" fill="#201135"/>
</svg>
