<svg width="16" height="14" viewBox="0 0 16 14" fill="none" xmlns="http://www.w3.org/2000/svg">
<path d="M14.6667 2.33304H11.3333V1.66635C11.3333 0.931008 10.7354 0.333008 10 0.333008H6C5.26466 0.333008 4.66666 0.930977 4.66666 1.66635V2.33301H1.33334C0.597969 2.33304 0 2.93101 0 3.66635V5.66635C0 6.40173 0.597969 6.9997 1.33334 6.9997H6.66669V6.66635C6.66669 6.4821 6.81578 6.33301 7.00003 6.33301H9.00003C9.18428 6.33301 9.33337 6.4821 9.33337 6.66635V6.9997H14.6667C15.402 6.9997 16 6.40173 16 5.66635V3.66635C16 2.93101 15.402 2.33304 14.6667 2.33304ZM10 2.33304H6V1.66635H10V2.33304Z" fill="#201135"/>
<path d="M15.8151 7.35942C15.7015 7.30311 15.5658 7.31614 15.4655 7.3923C15.2285 7.57167 14.9524 7.66639 14.6666 7.66639H9.33334V8.66639C9.33334 8.85064 9.18425 8.99973 9 8.99973H7C6.81575 8.99973 6.66666 8.85064 6.66666 8.66639V7.66639H1.33334C1.04753 7.66639 0.7715 7.57167 0.5345 7.3923C0.433906 7.31548 0.2985 7.30245 0.184875 7.35942C0.071625 7.41577 0 7.5313 0 7.65795V12.3331C0 13.0684 0.597969 13.6664 1.33334 13.6664H14.6667C15.402 13.6664 16 13.0685 16 12.3331V7.65795C16 7.5313 15.9284 7.41577 15.8151 7.35942Z" fill="#201135"/>
</svg>
